<svg width="120" height="68" viewBox="0 0 120 68" fill="none" xmlns="http://www.w3.org/2000/svg">
<g clip-path="url(#clip0_116_1006)">
<path fill-rule="evenodd" clip-rule="evenodd" d="M74.6035 32.9634C84.7379 21.6385 98.9572 14.694 114.21 13.62C113.225 9.65426 111.391 5.94381 108.831 2.73943C101.008 -7.17399 81.2046 13.62 74.6035 32.9634Z" fill="#1E4E82"/>
<path fill-rule="evenodd" clip-rule="evenodd" d="M113.482 64.39C114.099 48.4211 108.298 32.8597 97.3457 21.1096C100.935 18.6996 105.031 17.1287 109.326 16.5156C122.528 14.3394 122.528 44.5632 113.482 64.8737V64.39Z" fill="#1E4E82"/>
<path fill-rule="evenodd" clip-rule="evenodd" d="M54.0713 53.0308C72.3254 57.1496 91.4815 54.2085 107.614 44.8101C109.296 49.3795 110.124 54.2132 110.058 59.0756C110.058 74.5501 74.608 67.7801 54.0713 53.0308Z" fill="#1E4E82"/>
<path d="M4.66813 47.8721C2.28381 47.8721 0.828125 46.6063 0.828125 44.5461C0.828125 42.4115 2.3842 41.1208 5.0446 41.1208C6.2493 41.1208 7.5544 41.3938 8.73401 41.9647V41.22C8.73401 38.9861 7.67989 37.9188 5.47126 37.9188C3.99048 37.9188 2.68538 38.4152 1.75675 39.3584V37.9188C2.68538 37.0997 4.06577 36.6777 5.64695 36.6777C8.58342 36.6777 10.1395 38.167 10.1395 41.0463V47.5743H9.03518L8.8344 45.8864C7.80538 47.202 6.37479 47.8721 4.66813 47.8721ZM4.89401 46.6311C6.52538 46.6311 7.73009 45.9113 8.73401 44.422V43.1561C7.70499 42.6349 6.45009 42.337 5.22028 42.337C3.26264 42.337 2.23362 43.0816 2.23362 44.4964C2.23362 45.8368 3.18734 46.6311 4.89401 46.6311ZM13.672 47.5743V36.9756H14.7764L14.9771 38.862C15.8305 37.3727 17.0352 36.6777 18.6917 36.6777C19.0179 36.6777 19.2187 36.7026 19.3944 36.7274V38.1422C19.1936 38.0926 18.8673 38.0677 18.5913 38.0677C16.985 38.0677 15.7552 38.9613 15.0775 40.674V47.5743H13.672ZM25.3703 47.8721C23.4628 47.8721 22.3836 46.8793 22.3836 44.9432V38.167H20.2252V36.9756H22.4087L22.4589 33.9474L23.7891 33.2028V36.9756H27.4786V38.167H23.7891V44.7447C23.7891 46.0105 24.3915 46.5814 25.5711 46.5814C26.3241 46.5814 26.9013 46.358 27.5037 45.8864V47.3013C26.9515 47.6736 26.2488 47.8721 25.3703 47.8721ZM30.6009 33.9722C29.9986 33.9722 29.5217 33.5006 29.5217 32.9049C29.5217 32.2844 29.9986 31.8376 30.6009 31.8376C31.2284 31.8376 31.6802 32.2844 31.6802 32.9049C31.6802 33.5006 31.2284 33.9722 30.6009 33.9722ZM29.8731 47.5743V36.9756H31.2786V47.5743H29.8731ZM43.853 36.9756V47.5743H42.4475V38.167H36.951V47.5743H35.5455V38.167H33.3871V36.9756H35.5455V33.8481C35.5455 30.9937 37.1016 29.6533 39.6362 29.6533C40.9165 29.6533 42.0208 30.0008 42.6483 30.5469V32.0113C41.9455 31.3163 40.9918 30.8944 39.762 30.8944C37.9298 30.8944 36.951 31.7879 36.951 33.8729V36.9756H43.853ZM47.6671 47.5743V36.9756H48.7714L48.9722 38.7627C49.9761 37.3976 51.3063 36.6777 53.013 36.6777C55.4726 36.6777 56.8279 38.167 56.8279 40.9966V47.5743H55.4224V41.1208C55.4224 39.0109 54.5188 37.9685 52.7871 37.9685C51.1055 37.9685 49.8506 38.9117 49.0726 40.4754V47.5743H47.6671ZM65.0553 47.8721C61.8428 47.8721 59.5839 45.5638 59.5839 42.2625C59.5839 38.9613 61.8428 36.6777 65.0302 36.6777C66.6365 36.6777 67.9667 37.2735 68.9455 38.4152V29.9512H70.351V47.5743H69.2467L69.071 46.0354C68.0671 47.2516 66.7369 47.8721 65.0553 47.8721ZM65.2059 46.5814C66.7871 46.5814 68.0922 45.8616 68.9455 44.5213V40.0038C68.1173 38.6634 66.7871 37.9685 65.2059 37.9685C62.6961 37.9685 61.0145 39.7308 61.0145 42.2625C61.0145 44.8191 62.6961 46.5814 65.2059 46.5814ZM76.923 47.8721C74.5387 47.8721 73.083 46.6063 73.083 44.5461C73.083 42.4115 74.6391 41.1208 77.2995 41.1208C78.5042 41.1208 79.8093 41.3938 80.9889 41.9647V41.22C80.9889 38.9861 79.9348 37.9188 77.7262 37.9188C76.2454 37.9188 74.9403 38.4152 74.0117 39.3584V37.9188C74.9403 37.0997 76.3207 36.6777 77.9019 36.6777C80.8383 36.6777 82.3944 38.167 82.3944 41.0463V47.5743H81.2901L81.0893 45.8864C80.0603 47.202 78.6297 47.8721 76.923 47.8721ZM77.1489 46.6311C78.7803 46.6311 79.985 45.9113 80.9889 44.422V43.1561C79.9599 42.6349 78.705 42.337 77.4752 42.337C75.5175 42.337 74.4885 43.0816 74.4885 44.4964C74.4885 45.8368 75.4422 46.6311 77.1489 46.6311Z" fill="#1E4E82"/>
</g>
<defs>
<clipPath id="clip0_116_1006">
<rect width="120" height="68" fill="white"/>
</clipPath>
</defs>
</svg>
